<svg xmlns="http://www.w3.org/2000/svg" viewBox="0 0 72 72" width="72" height="72">
  <defs>
    <linearGradient id="gold" x1="0" y1="0" x2="1" y2="1">
      <stop offset="0" stop-color="#E6C76A"/><stop offset="0.6" stop-color="#C8A24B"/><stop offset="1" stop-color="#A87E2E"/>
    </linearGradient>
    <linearGradient id="navy" x1="0" y1="0" x2="1" y2="1">
      <stop offset="0" stop-color="#0A1E3F"/><stop offset="1" stop-color="#143A6B"/>
    </linearGradient>
  </defs>
  <rect x="4" y="4" width="64" height="64" rx="17" fill="url(#navy)" stroke="url(#gold)" stroke-width="2.5"/>
  <g transform="translate(15,15) scale(1.75)" fill="none" stroke="url(#gold)" stroke-width="2" stroke-linecap="round" stroke-linejoin="round">
    <path d="M15.3 3.6a6 6 0 0 1 5.1 5.1"/>
    <path d="M14.5 7.2a3 3 0 0 1 2.4 2.4"/>
    <path d="M6.5 4h2.5l1.3 3.2-1.9 1.2a11 11 0 0 0 5 5l1.2-1.9 3.2 1.3v2.5a2 2 0 0 1-2.2 2A16 16 0 0 1 4.5 6.2 2 2 0 0 1 6.5 4z"/>
  </g>
</svg>
