<svg xmlns="http://www.w3.org/2000/svg" viewBox="0 0 380 100" width="380" height="100" font-family="'Geist','Inter',sans-serif">
  <defs>
    <linearGradient id="cy" x1="0" y1="0" x2="1" y2="1">
      <stop offset="0" stop-color="#48DAFA"/><stop offset="1" stop-color="#2563EB"/>
    </linearGradient>
  </defs>
  <rect x="8" y="22" width="56" height="56" rx="15" fill="rgba(255,255,255,0.06)" stroke="url(#cy)" stroke-width="2"/>
  <g transform="translate(18.5,32.5) scale(1.46)" fill="none" stroke="url(#cy)" stroke-width="2" stroke-linecap="round" stroke-linejoin="round">
    <path d="M15.3 3.6a6 6 0 0 1 5.1 5.1"/>
    <path d="M14.5 7.2a3 3 0 0 1 2.4 2.4"/>
    <path d="M6.5 4h2.5l1.3 3.2-1.9 1.2a11 11 0 0 0 5 5l1.2-1.9 3.2 1.3v2.5a2 2 0 0 1-2.2 2A16 16 0 0 1 4.5 6.2 2 2 0 0 1 6.5 4z"/>
  </g>
  <text x="80" y="54" font-size="30" font-weight="600" fill="#FFFFFF">KI Telefon-Agent</text>
  <text x="82" y="74" font-size="10.5" font-weight="600" letter-spacing="3.5" fill="#48DAFA">AI VOICE IMPACT</text>
</svg>
